<svg id="Calque_1" data-name="Calque 1" xmlns="http://www.w3.org/2000/svg" xmlns:xlink="http://www.w3.org/1999/xlink" viewBox="0 0 498.43 186.36"><defs><style>.cls-1{fill:url(#Dégradé_sans_nom_5);}.cls-2{font-size:20.7px;font-family:Gilroy-Light, Gilroy;font-weight:300;}.cls-3{letter-spacing:-0.02em;}.cls-4{letter-spacing:0em;}.cls-5{letter-spacing:-0.02em;}.cls-6{fill:url(#Dégradé_sans_nom_29);}</style><linearGradient id="Dégradé_sans_nom_5" x1="-7.84" y1="191.1" x2="168.03" y2="28.42" gradientUnits="userSpaceOnUse"><stop offset="0" stop-color="#0D9962"/><stop offset="1" stop-color="#fbb03b"/></linearGradient><linearGradient id="Dégradé_sans_nom_29" x1="507.64" y1="69.7" x2="212.51" y2="76.84" gradientUnits="userSpaceOnUse"><stop offset="0" stop-color="#0D9962"/><stop offset="1" stop-color="#d5b239"/></linearGradient></defs><path class="cls-1" d="M155,146.94c10.9-8.18,21.13-16.87,23.69-31.17,2.27-12.67-4.65-31.11-13.33-36.25-2,24.2-10.9,44.09-34.12,56.1-.16-1.76-.21-2.68-.34-3.59-1.43-10.46-2.19-21.07-4.43-31.36-6.68-30.75-19.93-59-33.92-87a59.64,59.64,0,0,0-8-11.52C81.85-1,79.08-.69,77.13,3c-1.73,3.24-2.58,7-3.79,10.48-.48,1.38-.49,3.15-1.39,4.1-2.73,2.87-5.79,5.42-9,8.36l-1.54-4.49L48.32,23.22l10.91-8.14C57.08,11.48,55,7.82,52.71,4.31c-.85-1.3-2-1.15-2.47.32s-1.1,2.62-1.47,4Q45.38,21,42.06,33.4c-1.31,4.85-1.32,4.79-6.41,5.33-4.53.48-9,1.08-13.56,1.67-2.93.38-3.38,2-2.51,3.72,4.15,0,7.76-.12,11.36,0,3,.12,3.8,1.27,3,4.15a11.15,11.15,0,0,1-4.84,6.77,8.3,8.3,0,0,1-.35-1.39c-.13-4.27-.13-4.27-4.53-3.81a15.77,15.77,0,0,1-1.68.1c-1.86,0-2.69.79-2.22,2.7,1.95,7.93,3.75,15.89,5.93,23.75,1.09,3.9,1.42,3.82,5,2.18,6.59-3,13.09-6.19,19.78-8.94,4.5-1.86,8.12-4.41,10.61-8.68.8-1.38,2.31-2.36,3.55-3.49l.06-.22-.08-.11.19.17-.17.16c-.53,2-1.19,4-1.53,6-.75,4.46-3,7.57-7.35,9.07-4,1.37-6.39,3.84-6.47,8.47a5.22,5.22,0,0,1-4.59,5.35c-2.91.45-5.3-.39-6.9-3-.4-.65-.86-1.26-1.39-2a74.52,74.52,0,0,0-7.12,4.13c-2.31,1.69-3.6.79-4.8-1.19l-4.48-7.46C7,85.17-1.26,98.93.16,111.53,1.29,121.64,6.84,129.38,14,136.27c.59-.66.72-.74.75-.85.78-3.39,1.4-6.83,2.38-10.16.6-2,.09-3.16-1.58-4.36-5-3.58-6.23-8.21-4-14,1.09-2.81,2.13-3,4.21-.7,1.63,1.83,3,3.89,4.7,6.11.92-7.45,4.51-12.65,10-16.83a1.14,1.14,0,0,1,1.63.26l1.76,2.66,4.35-6a1.14,1.14,0,0,1,1.89,0l2.26,3.6c1.78-1.56,3.37-3,5-4.38,2.91-2.51,4.17-2.37,6.28.84a21.42,21.42,0,0,1,1.78,3.59c.62,1.5.21,2.43-1.46,3.06a48.07,48.07,0,0,0-5.63,3.1,73,73,0,0,1,7.16,2.44,40.54,40.54,0,0,1,4.89,3.09c-1.41,1.13-2.86,2.21-4.19,3.41a9.4,9.4,0,0,0-1.32,1.93c.78.07,1.71.45,2.31.15,2.4-1.17,4.63-2.71,7-3.84,4-1.84,6.57-4.33,7.75-8.9a23.27,23.27,0,0,1,7.26-11.49c-1.55,5.92-2.91,11.49-4.51,17A5.22,5.22,0,0,1,72.38,109c-11,5.77-22.08,11.55-33.28,17-6.27,3-8.07,7.75-4.74,13.86l4.71-4.12-.26,5.64a1.15,1.15,0,0,0,1.84,1l3.73-3-1,7.1c7.85-.17,14.71-1.57,18.68-8.56a6.16,6.16,0,0,1,5.8-3.64c5.92-.39,12.16-.65,14.64-7.78a3.86,3.86,0,0,1,1.55-1.82,30,30,0,0,1,6.2-3.34c1.67-.54,3,.21,1.63,2.42a42.19,42.19,0,0,0-2.07,4.43c7.68.39,9-8.44,15.26-9.73l.11.11-2.67,8.19,6-2.69c.62,5,.3,9-2.76,12.9-3.75,4.78-8.16,7.11-14.2,6.52-2.13-.2-4.34.14-6.42-.25-2.64-.49-4.59.45-6.69,1.84-9,5.91-17.93,11.77-27,17.45a21.41,21.41,0,0,1-7,2.67c-4.66,1-9.41,1.48-14.88,2.3,15.14,11.27,31,18.62,49.35,18.85,18.59.24,34.51-6.75,48-19.31a6.39,6.39,0,0,1,6.45-1.76,57.93,57.93,0,0,0,21.57.56,36.82,36.82,0,0,0,29.7-29.7C175.33,141.52,165.89,146.1,155,146.94ZM58.2,42.73C57.87,37.57,60,34.67,64.1,34S72,35.81,73,40.3C67.52,37.19,62.47,37,58.2,42.73Zm70.58-11.37a19.16,19.16,0,0,0,10.5-10.63c2.17,5.11,5.63,8.41,11.55,10.59A18.26,18.26,0,0,0,139.26,43C137.07,37,133.77,33.56,128.78,31.36Zm-95.4,76.36c.53-3.63,1.59-5.39,4.42-5.53,2.42-.11,4.07.76,4.92,3.88C39.24,104.16,36.32,104.33,33.38,107.72ZM65.31,57.27l-.08-.11.19.17Z"/><text class="cls-2" transform="translate(220.4 144.49)">D<tspan class="cls-3" x="15.04" y="0">e</tspan><tspan class="cls-4" x="26.82" y="0">viens </tspan><tspan class="cls-5" x="80.48" y="0">s</tspan><tspan x="89.65" y="0">on meilleur ami !</tspan></text><path class="cls-6" d="M220.8,33.13H244v81.05H220.8ZM336.23,66.36V76q0,17.37-11.17,28.71T295.71,116q-19,0-31-12.1t-12-30.16q0-18.06,12-30.28t30.1-12.21a43.11,43.11,0,0,1,20.78,5.09,39.16,39.16,0,0,1,14.88,13.78L310.76,61.38Q305.9,54,295.24,54q-8.67,0-14.06,5.56t-5.39,14.35a22.47,22.47,0,0,0,5,14.53q5,6.2,15.4,6.2,12,0,16.09-8.57H295V66.36Zm89.38,0V76q0,17.37-11.17,28.71T385.09,116q-19,0-31-12.1T342,73.77q0-18.06,12-30.28t30.1-12.21a43.11,43.11,0,0,1,20.78,5.09,39.16,39.16,0,0,1,14.88,13.78L400.14,61.38Q395.28,54,384.62,54q-8.67,0-14.06,5.56t-5.39,14.35a22.47,22.47,0,0,0,5,14.53q5,6.2,15.4,6.2,12,0,16.09-8.57H384.39V66.36Zm72.82-33.23L471,83.38v30.8H447.84V83.38L420.4,33.13h25.7l13.32,28.48,13.31-28.48Z"/></svg>