<svg xmlns="http://www.w3.org/2000/svg" xmlns:xlink="http://www.w3.org/1999/xlink" xmlns:fi="http://pattern.flaticon.com/" x="0" y="0" width="700" height="350" viewBox="0 0 700 350"><rect x="0px" y="0px" width="100%" height="100%" opacity="1" fill="#ffffff"/><defs><g transform="matrix(0.15621414868404737 -0.03622357094788567 0.03622357094788567 0.15621414868404737 189.73594377422515 104.2824120995426)" id="L1_0"><path d="m316 418.699219c-11.699219.898437-23.101562-4.5-31.5-12.902344-8.699219-8.398437-13.5-19.796875-13.5-31.796875h-30c0 12-4.800781 23.398438-13.5 31.800781-8.398438 8.398438-19.5 13.5-31.5 12.898438h-15v18.300781c0 41.398438 33.601562 75 75 75s75-33.601562 75-75v-18.300781zm0 0" fill="#ff7816"/><path d="m316 418.699219h15v18.300781c0 41.398438-33.601562 75-75 75v-138h15c0 12 4.800781 23.398438 13.5 31.800781 8.398438 8.398438 19.800781 13.796875 31.5 12.898438zm0 0" fill="#ff4b00"/><path d="m438.582031 252.078125-119.121093-225.082031 30.335937-15.160156c15.484375-7.75 32.8125-11.835938 50.113281-11.835938 61.800782 0 112.089844 50.273438 112.089844 112.074219v71.875c0 35.902343-28.050781 65.59375-63.867188 67.585937zm0 0" fill="#b35f49"/><path d="m73.417969 252.078125-9.550781-.542969c-35.816407-1.992187-63.867188-31.683594-63.867188-67.585937v-71.875c0-61.800781 50.289062-112.074219 112.089844-112.074219 17.300781 0 34.628906 4.085938 50.113281 11.835938l30.335937 15.160156zm0 0" fill="#c6715a"/><path d="m481 311.898438c0 77.402343-52.800781 123.300781-156.597656 136.5-3.300782.300781-5.402344.601562-9.003906.300781-19.496094 0-37.796876-7.5-51.898438-21.601563-2.699219-2.699218-5.398438-5.398437-7.5-8.398437-2.097656 3-4.796875 5.699219-7.5 8.398437-14.097656 14.101563-33.898438 21-52.5 21.601563-.300781 0-.300781 0-.300781 0-2.695313 0-5.097657 0-8.097657-.300781-103.800781-13.199219-156.601562-59.097657-156.601562-136.5 0-25.5 5.699219-50.097657 17.101562-72.898438 8.699219-17.398438 12.898438-36.300781 12.898438-56.101562 0-87.296876 64.5-161.898438 154.800781-179h.597657l27.003906 13.203124-1.203125 4.199219c-.898438 2.699219-1.199219 5.699219-1.199219 8.699219 0 10.800781 5.398438 21.300781 15 30.300781 18.300781 17.699219 52.199219 29.699219 90 29.699219 17.699219 0 34.199219-3 49.800781-8.101562l35.398438 19.199218c12.902343 24 19.800781 53 19.800781 80.902344 0 20.699219 4.199219 39.597656 12.898438 56.996094 11.402343 22.804687 17.101562 47.402344 17.101562 72.902344zm0 0" fill="#fdbf00"/><path d="m481 311.898438c0 77.402343-52.800781 123.300781-156.597656 136.5-3.300782.300781-5.402344.601562-9.003906.300781-19.496094 0-37.796876-7.5-51.898438-21.601563-2.699219-2.699218-5.398438-5.398437-7.5-8.398437v-358.398438c18.300781 17.699219 52.199219 29.699219 90 29.699219 17.699219 0 34.199219-3 49.800781-8.101562l35.398438 19.199218c12.902343 24 19.800781 53 19.800781 80.902344 0 20.699219 4.199219 39.597656 12.898438 56.996094 11.402343 22.804687 17.101562 47.402344 17.101562 72.902344zm0 0" fill="#ff9f00"/><path d="m322.597656 273.5c-20.996094-10.5-43.796875-15.601562-66.597656-15.601562s-45.601562 5.101562-66.597656 15.601562l-8.402344 4.199219v9.300781c0 41.398438 33.601562 75 75 75s75-33.601562 75-75v-9.300781zm0 0" fill="#725d57"/><path d="m346 242c-24.8125 0-45-20.1875-45-45s20.1875-45 45-45 45 20.1875 45 45-20.1875 45-45 45zm0 0" fill="#f8e5ca"/><path d="m346 212c-8.277344 0-15-6.722656-15-15s6.722656-15 15-15 15 6.722656 15 15-6.722656 15-15 15zm0 0" fill="#3e322e"/><path d="m166 242c-24.8125 0-45-20.1875-45-45s20.1875-45 45-45 45 20.1875 45 45-20.1875 45-45 45zm0 0" fill="#faecd8"/><path d="m166 212c-8.277344 0-15-6.722656-15-15s6.722656-15 15-15 15 6.722656 15 15-6.722656 15-15 15zm0 0" fill="#53433f"/><path d="m421.601562 85.199219c-2.101562-3.300781-4.5-6.300781-7.199218-9.601563-36.300782-47.398437-94.800782-75.597656-158.402344-75.597656-11.101562 0-21.597656.898438-30.601562 2.398438l-9 1.5h-.300782l-2.699218 9c-1.496094 5.703124-2.398438 11.101562-2.398438 17.101562 0 27.300781 17.402344 51.300781 45 67.5 24 14.097656 55.199219 22.5 90 22.5 24.300781 0 48-4.199219 68.699219-12.300781l16.5-6.597657c-2.699219-5.402343-6-10.800781-9.597657-15.902343zm0 0" fill="#ff9f00"/><path d="m331 277.699219v9.300781c0 41.398438-33.601562 75-75 75v-104.101562c22.800781 0 45.601562 5.101562 66.597656 15.601562zm0 0" fill="#53433f"/><path d="m431.199219 101.101562-16.5 6.597657c-20.699219 8.101562-44.398438 12.300781-68.699219 12.300781-34.800781 0-66-8.402344-90-22.5v-97.5c63.601562 0 122.101562 28.199219 158.402344 75.597656 2.699218 3.300782 5.097656 6.300782 7.199218 9.601563 3.597657 5.101562 6.898438 10.5 9.597657 15.902343zm0 0" fill="#ff7816"/></g><g transform="matrix(0.1171875 0 0 0.1171875 143 303)" id="L1_2"><path d="m409.300781 330.800781-4.800781-3.902343c-9-6.597657-15-15.597657-17.398438-25.5-13.800781-56.097657-62.699218-89.398438-131.101562-89.398438s-117.300781 33.300781-131.101562 89.398438c-2.398438 9.902343-8.398438 18.902343-17.398438 25.5l-4.800781 3.898437c-27.898438 21.300781-49.800781 38.402344-38.699219 88.800781 10.199219 45 47.398438 81.300782 93 90 8.097656 1.5 15.898438 2.402344 24 2.402344 16.5 0 32.699219-3.300781 48-9.902344 8.398438-3.898437 17.699219-5.699218 27-5.699218s18.601562 1.800781 27 5.699218c22.5 9.601563 47.398438 12.300782 72 7.5 45.601562-8.699218 82.800781-45 93-90 11.101562-50.398437-10.800781-67.5-38.699219-88.796875zm0 0" fill="#68544f"/><path d="m181 150c-33.089844 0-60-33.648438-60-75s26.910156-75 60-75 60 33.648438 60 75-26.910156 75-60 75zm0 0" fill="#68544f"/><path d="m331 150c-33.089844 0-60-33.648438-60-75s26.910156-75 60-75 60 33.648438 60 75-26.910156 75-60 75zm0 0" fill="#53433f"/><path d="m60 271c-33.089844 0-60-33.648438-60-75s26.910156-75 60-75 60 33.648438 60 75-26.910156 75-60 75zm0 0" fill="#68544f"/><g fill="#53433f"><path d="m452 271c-33.089844 0-60-33.648438-60-75s26.910156-75 60-75 60 33.648438 60 75-26.910156 75-60 75zm0 0"/><path d="m448 419.597656c-10.199219 45-47.398438 81.300782-93 90-24.601562 4.800782-49.5 2.101563-72-7.5-8.398438-3.898437-17.699219-5.699218-27-5.699218v-284.398438c68.402344 0 117.300781 33.300781 131.101562 89.398438 2.398438 9.902343 8.398438 18.902343 17.398438 25.5l4.800781 3.898437c27.898438 21.300781 49.800781 38.402344 38.699219 88.800781zm0 0"/></g></g><g transform="matrix(0.11718717962503433 0 0 0.11718717962503433 208 192)" id="L1_3"><path d="m92.519531 277.304688-85.679687-177.941407c-8.46875-17.605469-9.097656-38.085937-1.746094-56.179687 7.371094-18.105469 22.121094-32.3125 40.492188-38.992188 18.339843-6.710937 38.773437-5.316406 56.089843 3.851563 17.269531 9.125 29.941407 25.226562 34.761719 44.152343l39.066406 153.316407zm0 0" fill="#ffcebf"/><path d="m33.867188 86.339844c-4.792969-9.960938-5.15625-21.589844-.984376-31.859375 4.175782-10.253907 12.539063-18.3125 22.957032-22.089844 4.335937-1.597656 8.847656-2.386719 13.433594-2.386719 6.386718 0 12.726562 1.566406 18.351562 4.554688 9.816406 5.1875 17.007812 14.3125 19.734375 25.035156l34.496094 135.355469-39.316407 34.015625zm0 0" fill="#ff9ac9"/><path d="m290.746094 288.90625-78.148438-80.394531 39.8125-156.316407c4.835938-18.941406 17.507813-35.039062 34.792969-44.164062 17.285156-9.128906 37.691406-10.5625 56.0625-3.839844 18.367187 6.679688 33.132813 20.902344 40.503906 38.996094 7.351563 18.105469 6.707031 38.585938-1.757812 56.175781zm0 0" fill="#ffbfab"/><path d="m245.820312 199.652344 35.667969-140.042969c2.738281-10.753906 9.933594-19.878906 19.71875-25.050781 5.652344-2.972656 12.011719-4.554688 18.382813-4.554688 4.585937 0 9.082031.789063 13.359375 2.355469 10.476562 3.808594 18.855469 11.882813 23.027343 22.136719 4.160157 10.253906 3.8125 21.871094-.996093 31.859375l-72.640625 150.855469zm0 0" fill="#ff7cb9"/><path d="m357.621094 389.996094c0 40.199218-26.703125 75.601562-65.101563 86.402344-15.601562 4.199218-31.503906 11.101562-51.601562 21.601562-4.203125 2.097656-8.703125 4.199219-13.203125 6l-2.398438.898438-32.703125-.296876-35.097656-.601562c-4.503906-1.800781-9-3.601562-13.203125-6-18.597656-9.902344-34.199219-16.5-48.898438-20.703125-33.902343-10.199219-59.105468-36.296875-65.703124-68.097656-7.199219-33.304688 4.199218-66.304688 29.699218-87.605469.902344-7.5 2.101563-14.699219 3.902344-21.597656l17.402344-7.5-8.101563-22.503906c21.597657-54 66-90 116.703125-90h3.300782c49.199218 1.5 92.101562 37.5 113.402343 90l-9 12 18 18.003906c1.5 5.398437 2.398438 10.796875 3.300781 16.199218 24.296876 16.5 39.300782 44.398438 39.300782 73.800782zm0 0" fill="#ffcebf"/><path d="m357.621094 389.996094c0 40.199218-26.703125 75.601562-65.101563 86.402344-15.601562 4.199218-31.503906 11.101562-51.601562 21.601562-4.203125 2.097656-8.703125 4.199219-13.203125 6l-2.398438.898438-32.703125-.296876v-324.609374c49.203125 1.5 92.105469 37.5 113.40625 90l-9.003906 12 18.003906 18.003906c1.5 5.398437 2.398438 10.796875 3.300781 16.199218 24.296876 16.5 39.300782 44.398438 39.300782 73.800782zm0 0" fill="#ffbfab"/><path d="m237.414062 432.5v79.5h-89.800781v-79.5c4.5 2.699219 9.300781 4.5 15 4.5 16.5 0 30-13.5 30-30 0 16.5 13.5 30 30.003907 30 5.699218 0 10.296874-1.800781 14.796874-4.5zm0 0" fill="#faecd8"/><path d="m237.414062 432.5v79.5h-44.800781v-105c0 16.5 13.5 30 30.003907 30 5.699218 0 10.296874-1.800781 14.796874-4.5zm0 0" fill="#f8e5ca"/><path d="m267.617188 404.996094c0 24.902344-20.101563 45.003906-45 45.003906-11.402344 0-21.902344-4.503906-30.003907-11.402344-8.101562 6.898438-18.597656 11.402344-30 11.402344-24.902343 0-45-20.101562-45-45.003906h30c0 8.402344 6.597657 15 15 15 8.402344 0 15-6.597656 15-15h30c0 8.402344 6.601563 15 15.003907 15 8.398437 0 15-6.597656 15-15zm0 0" fill="#c6715a"/><path d="m267.617188 404.996094c0 24.902344-20.101563 45.003906-45 45.003906-11.402344 0-21.902344-4.503906-30.003907-11.402344v-33.601562h15c0 8.402344 6.601563 15 15.003907 15 8.398437 0 15-6.597656 15-15zm0 0" fill="#b35f49"/><path d="m147.613281 314.996094h-30c0-8.402344-6.601562-15-15-15h-39.300781c2.097656-10.503906 5.398438-20.703125 9.300781-30.003906h30c24.902344 0 45 20.101562 45 45.003906zm0 0" fill="#c6715a"/><path d="m315.019531 299.996094h-32.402343c-8.402344 0-15 6.597656-15 15h-30c0-24.902344 20.097656-45.003906 45-45.003906h23.402343c3.597657 9.601562 6.898438 19.5 9 30.003906zm0 0" fill="#b35f49"/><path d="m192.613281 329.996094c-24.898437 0-45 20.097656-45 45v6.300781l45 45 44.800781-45v-6.300781c0-24.898438-19.898437-45-44.800781-45zm0 0" fill="#68544f"/><path d="m237.414062 374.996094v6.300781l-44.800781 45v-96.300781c24.902344 0 44.800781 20.101562 44.800781 45zm0 0" fill="#53433f"/></g><g transform="matrix(0.1171875 0 0 0.1171875 20 -26)" id="L1_4"><path d="m352.199219 431.898438-3.597657-2.097657h-307.203124l-3.597657 2.097657c-23.402343 13.199218-37.800781 38.101562-37.800781 65.101562v15h390v-15c0-27-14.398438-51.902344-37.800781-65.101562zm0 0" fill="#ffa78f"/><path d="m390 497v15h-195v-82.199219h153.601562l3.597657 2.097657c23.402343 13.199218 37.800781 38.101562 37.800781 65.101562zm0 0" fill="#f89580"/><path d="m390 346c0 75.300781-33.898438 166-195 166s-195-90.699219-195-166c0-63.898438 23.699219-126.101562 64.800781-168.699219h260.398438c41.101562 42.597657 64.800781 104.800781 64.800781 168.699219zm0 0" fill="#ffcebf"/><path d="m105 361h-45v-30h45c8.277344 0 15-6.722656 15-15s-6.722656-15-15-15h-45v-30h45c24.8125 0 45 20.1875 45 45s-20.1875 45-45 45zm0 0" fill="#ffa78f"/><path d="m390 346c0 75.300781-33.898438 166-195 166v-334.699219h130.199219c41.101562 42.597657 64.800781 104.800781 64.800781 168.699219zm0 0" fill="#ffbfab"/><path d="m131.558594 90.308594-6.226563-1.363282c-20.476562-4.46875-35.332031-22.953124-35.332031-43.945312 0-24.8125 20.1875-45 45-45s45 20.1875 45 45c0 2.710938-.25 5.359375-.703125 7.9375l-1.128906 6.285156zm0 0" fill="#ffcebf"/><path d="m258.441406 90.308594-46.609375-31.085938-1.128906-6.28125c-.453125-2.582031-.703125-5.230468-.703125-7.941406 0-24.8125 20.1875-45 45-45s45 20.1875 45 45c0 20.992188-14.855469 39.476562-35.332031 43.945312zm0 0" fill="#ffbfab"/><path d="m299.699219 127.800781c-3.597657-54.601562-49.199219-97.800781-104.699219-97.800781-54.601562 0-99.601562 42-104.398438 97.800781-18.601562 10.5-30.601562 30.296875-30.601562 52.199219 0 33 27 60 60 60 11.398438 0 22.5-3.300781 31.800781-9.300781 13.5 6.300781 28.199219 9.300781 43.199219 9.300781s29.699219-3 43.199219-9.300781c9.300781 6 20.402343 9.300781 31.800781 9.300781 33 0 60-27 60-60 0-21.902344-11.699219-41.699219-30.300781-52.199219zm0 0" fill="#ffa78f"/><path d="m238.199219 230.699219c-13.5 6.300781-28.199219 9.300781-43.199219 9.300781v-210c55.5 0 101.101562 43.199219 104.699219 97.800781 18.601562 10.5 30.300781 30.296875 30.300781 52.199219 0 33-27 60-60 60-11.398438 0-22.5-3.300781-31.800781-9.300781zm0 0" fill="#f89580"/><path d="m150 120h30v30h-30zm0 0" fill="#725d57"/><path d="m210 120h30v30h-30zm0 0" fill="#68544f"/><path d="m330 361h-45c-24.8125 0-45-20.1875-45-45s20.1875-45 45-45h45v30h-45c-8.277344 0-15 6.722656-15 15s6.722656 15 15 15h45zm0 0" fill="#f89580"/></g><g transform="matrix(0.13133403022677378 0.04596691179564622 -0.04596691179564622 0.13133403022677378 301.9630287082275 197.8982930928969)" id="L1_5"><path d="m414.699219 150-4.199219 7.5c-18.597656 32.398438-53.398438 52.5-90.898438 52.5h-243.601562c-7.800781 0-15.902344-2.101562-22.5-6l-22.5-13.199219v34.199219c0 23.699219 11.398438 46.199219 30 60v45h56.398438c17.402343 0 32.699218-9.601562 40.5-24.902344l2.402343-5.097656h101.398438l2.402343 5.097656c7.800782 15.300782 23.097657 24.902344 40.5 24.902344h56.398438v-31.5c18-3.601562 34.199219-13.800781 45-28.5h30c41.398438 0 76-33.601562 76-75v-45zm0 0" fill="#b35f49"/><path d="m512 150v45c0 41.398438-34.601562 75-76 75h-30c-10.800781 14.699219-27 24.898438-45 28.5v31.5h-56.398438c-17.402343 0-32.699218-9.601562-40.5-24.902344l-2.402343-5.097656h-50.699219v-90h108.601562c37.5 0 72.300782-20.101562 90.898438-52.5l4.199219-7.5zm0 0" fill="#99503d"/><path d="m142.792969 129.886719-44.292969-40.511719-58.34375 8.519531c-.425781 1.472657-1.101562 2.816407-1.480469 4.308594-4.21875 16.597656-12.714843 31.625-24.578125 43.492187l-14.097656 13.09375v6.210938c0 20.257812 8.894531 39.097656 22.679688 52.484375 4.144531 4.484375 9.097656 8.378906 15.730468 12.363281 11.355469 6.636719 24.347656 10.152344 37.589844 10.152344h60.246094l42.253906-40zm0 0" fill="#70da40"/><path d="m431.503906 120c-19.734375 0-37.800781-8.011719-51.429687-21.066406l-85.949219-19.558594-15.015625 50.71875-36.859375 38.03125 43.445312 71.875h33.90625c48.136719 0 92.902344-25.882812 116.867188-67.617188 4.21875-7.484374 7.925781-15.777343 11.015625-24.683593l9.578125-27.699219zm0 0" fill="#56c225"/><path d="m288.402344 36.898438-9.300782 93.300781-63.601562 46.199219-4.5-3-68.101562-43.5-25.5-86.699219 68.699218-43.199219h49.804688zm0 0" fill="#a5e887"/><path d="m288.402344 36.898438-9.300782 93.300781-63.601562 46.199219-4.5-3v-173.398438h24.902344zm0 0" fill="#90e36a"/><path d="m169.605469 0c-60.351563 0-112.78125 40.121094-129.449219 97.894531 26.933594 14.746094 62.144531 25.972657 102.636719 31.992188 8.386719-57.726563 23.972656-106.457031 43.160156-129.886719zm0 0" fill="#90e36a"/><path d="m364.707031 78.894531-2.007812-4.335937c-22.808594-45.289063-70.210938-74.558594-120.792969-74.558594h-5.984375c19.210937 23.476562 34.792969 72.402344 43.1875 130.09375 39.664063-5.871094 74.214844-16.882812 100.964844-31.160156-6.054688-5.800782-11.488281-12.285156-15.367188-20.039063zm0 0" fill="#70da40"/><path d="m285.699219 240h-149.398438c-.902343-37.5 1.5-75.601562 6.597657-110.101562 21.601562 3.300781 44.402343 5.101562 68.101562 5.101562s46.5-1.800781 68.101562-4.800781c5.097657 34.5 7.5 72.300781 6.597657 109.800781zm0 0" fill="#90e36a"/><path d="m285.699219 240h-74.699219v-105c23.699219 0 46.5-1.800781 68.101562-4.800781 5.097657 34.5 7.5 72.300781 6.597657 109.800781zm0 0" fill="#70da40"/></g><g transform="matrix(0.14495209072064058 -0.04491473345085065 0.04491473345085065 0.14495209072064058 -1.6059069879017542 87.39043653893378)" id="L1_6"><path d="m458.972656 45h53.027344v30h-53.027344zm0 0" fill="#ff4b00"/><path d="m64.582031 302h-30l-34.582031 30v120l29.144531 7.066406 60.855469-60.855468v-66.210938zm0 0" fill="#70da40"/><path d="m467 60c0 33-27 60-60 60h-60v152l-62 21.597656-8.699219 3.003906-51.300781-24.601562v-105.800781l11.398438-2.699219c19.800781-5.101562 33.601562-23.101562 33.601562-43.5 0-18.898438-12-36-30-42.300781l-1.5-.597657-1.5-32.101562c10.800781-18.601562 27.898438-32.699219 48-39.902344 9.601562-3.296875 19.5-5.097656 30-5.097656h92c33 0 60 27 60 60zm0 0" fill="#70da40"/><path d="m347 272-62 21.597656v-288.5c9.601562-3.296875 19.5-5.097656 30-5.097656h92c33 0 60 27 60 60s-27 60-60 60h-60zm0 0" fill="#56c225"/><path d="m452 332c0 33-27 60-60 60l-30.902344 19.800781-58.996094-19.800781-17.101562-8.699219-19.800781-9.902343c-7.199219-15.597657-22.5-26.398438-40.199219-26.398438-20.097656 0-37.5 13.199219-42.898438 31.800781l-.902343 3.300781-29.699219 1.796876c-18.902344-9.898438-31.5-29.398438-31.5-51.898438 0-33 27-60 60-60h119.898438l36 16.199219c6.601562 17.101562 22.5 28.800781 41.101562 28.800781 12 0 22.800781-4.5 30.902344-12.300781l36.898437-1.199219c4.796875 8.699219 7.199219 18.597656 7.199219 28.5zm0 0" fill="#70da40"/><path d="m452 332c0 33-27 60-60 60l-30.902344 19.800781-58.996094-19.800781-17.101562-8.699219v-111.300781h14.898438l36 16.199219c6.601562 17.101562 22.5 28.800781 41.101562 28.800781 12 0 22.800781-4.5 30.902344-12.300781l36.898437-1.199219c4.796875 8.699219 7.199219 18.597656 7.199219 28.5zm0 0" fill="#56c225"/><path d="m362 45h30v30h-30zm0 0" fill="#68544f"/><path d="m285 75.300781c-8.699219-11.699219-20.699219-21-35.398438-25.800781l-12.601562-4.5c-2.398438 4.199219-4.5 8.699219-6.300781 13.5s-3.300781 9.597656-3.898438 14.699219c-1.199219 5.402343-1.800781 11.101562-1.800781 16.800781v107.101562l18.601562-4.800781c17.097657-4.203125 31.5-14.101562 41.398438-27.300781 9.601562-12.601562 15-28.199219 15-45 0-16.5-5.398438-32.101562-15-44.699219zm0 0" fill="#53433f"/><path d="m377 347c-34.160156 0-63.953125-23.144531-72.4375-56.277344l-4.789062-18.722656h92.226562c18.382812 0 36.0625 8.6875 47.285156 23.246094l5.472656 8.261718-4.636718 8.847657c-13.550782 21.695312-37.148438 34.644531-63.121094 34.644531zm0 0" fill="#53433f"/><path d="m302.101562 392-17.101562 4.199219-70.800781 18-34.199219-22.199219c-6.300781 0-12.300781-.902344-17.699219-3l-11.398437-5.101562 2.398437-12.898438c8.699219-31.800781 38.398438-54 71.699219-54 24.300781 0 46.5 11.699219 60 30.597656 5.699219 7.5 9.902344 16.203125 12.300781 25.800782zm0 0" fill="#68544f"/><path d="m300 120c0 16.800781-5.398438 32.398438-15 45v-89.699219c9.601562 12.597657 15 28.199219 15 44.699219zm0 0" fill="#3e322e"/><path d="m302.101562 392-17.101562 4.199219v-48.601563c5.699219 7.5 9.902344 16.203125 12.300781 25.800782zm0 0" fill="#53433f"/><path d="m512 452c0 33-27 60-60 60h-119.898438l-33.601562-10.800781v-.597657c-2.402344-8.703124-7.199219-16.5-13.5-21.902343-8.101562-7.5-18.601562-11.699219-30-11.699219-20.398438 0-38.402344 13.800781-43.5 33.601562v.898438l-33.601562 10.5h-117.898438c-33 0-60-27-60-60 0-22.199219 12.300781-41.398438 30.902344-51.601562l34.496094 11.699218c7.5 14.703125 22.5 24.902344 39.601562 24.902344 18.601562 0 34.5-11.699219 41.101562-28.800781l36-16.199219h147.796876l36 16.5c6.902343 16.800781 22.5 28.5 41.101562 28.5 15.601562 0 29.398438-8.101562 37.5-20.398438l36.898438-16.203124c18.300781 10.203124 30.601562 29.402343 30.601562 51.601562zm0 0" fill="#a5e887"/><path d="m512 452c0 33-27 60-60 60h-119.898438l-33.601562-10.800781v-.597657c-2.402344-8.703124-7.199219-16.5-13.5-21.902343v-86.699219h44.898438l36 16.5c6.902343 16.800781 22.5 28.5 41.101562 28.5 15.601562 0 29.398438-8.101562 37.5-20.398438l36.898438-16.203124c18.300781 10.203124 30.601562 29.402343 30.601562 51.601562zm0 0" fill="#90e36a"/><path d="m407 467c-34.160156 0-63.953125-23.144531-72.4375-56.277344l-4.789062-18.722656h122.226562c6.386719 0 12.335938 1.039062 17.679688 3.089844l11.859374 5.496094-2.789062 12.550781c-8.894531 31.714843-38.394531 53.863281-71.75 53.863281zm0 0" fill="#68544f"/><path d="m327.300781 493.398438c-5.703125-22.796876-21.601562-41.097657-42.300781-49.800782-9.300781-4.496094-19.5-6.597656-30-6.597656-34.199219 0-63.898438 23.097656-72.300781 56.398438l-4.800781 18.601562h154.203124zm0 0" fill="#725d57"/><path d="m105 467c-33.355469 0-62.855469-22.148438-71.746094-53.863281l-2.492187-12.851563 11.558593-5.195312c5.34375-2.050782 11.292969-3.089844 17.679688-3.089844h122.226562l-4.789062 18.722656c-8.484375 33.132813-38.277344 56.277344-72.4375 56.277344zm0 0" fill="#725d57"/><g fill="#68544f"><path d="m327.300781 493.398438 4.800781 18.601562h-47.101562v-68.402344c20.699219 8.703125 36.597656 27.003906 42.300781 49.800782zm0 0"/><path d="m90 332h-90v-45c0-24.8125 20.1875-45 45-45s45 20.1875 45 45zm0 0"/></g></g><g transform="matrix(0.12982039100550286 0.022097087731512633 -0.022097087731512633 0.12982039100550286 65.4228343618585 181.10912544332405)" id="L1_7"><path d="m409.300781 330.800781-4.800781-3.902343c-9-6.597657-15-15.597657-17.398438-25.5-13.800781-56.097657-62.699218-89.398438-131.101562-89.398438s-117.300781 33.300781-131.101562 89.398438c-2.398438 9.902343-8.398438 18.902343-17.398438 25.5l-4.800781 3.898437c-27.898438 21.300781-49.800781 38.402344-38.699219 88.800781 10.199219 45 47.398438 81.300782 93 90 8.097656 1.5 15.898438 2.402344 24 2.402344 16.5 0 32.699219-3.300781 48-9.902344 8.398438-3.898437 17.699219-5.699218 27-5.699218s18.601562 1.800781 27 5.699218c22.5 9.601563 47.398438 12.300782 72 7.5 45.601562-8.699218 82.800781-45 93-90 11.101562-50.398437-10.800781-67.5-38.699219-88.796875zm0 0" fill="#68544f"/><path d="m181 150c-33.089844 0-60-33.648438-60-75s26.910156-75 60-75 60 33.648438 60 75-26.910156 75-60 75zm0 0" fill="#68544f"/><path d="m331 150c-33.089844 0-60-33.648438-60-75s26.910156-75 60-75 60 33.648438 60 75-26.910156 75-60 75zm0 0" fill="#53433f"/><path d="m60 271c-33.089844 0-60-33.648438-60-75s26.910156-75 60-75 60 33.648438 60 75-26.910156 75-60 75zm0 0" fill="#68544f"/><g fill="#53433f"><path d="m452 271c-33.089844 0-60-33.648438-60-75s26.910156-75 60-75 60 33.648438 60 75-26.910156 75-60 75zm0 0"/><path d="m448 419.597656c-10.199219 45-47.398438 81.300782-93 90-24.601562 4.800782-49.5 2.101563-72-7.5-8.398438-3.898437-17.699219-5.699218-27-5.699218v-284.398438c68.402344 0 117.300781 33.300781 131.101562 89.398438 2.398438 9.902343 8.398438 18.902343 17.398438 25.5l4.800781 3.898437c27.898438 21.300781 49.800781 38.402344 38.699219 88.800781zm0 0"/></g></g><g transform="matrix(0.1171875 0 0 0.1171875 246 311)" id="L1_8"><path d="m316 418.699219c-11.699219.898437-23.101562-4.5-31.5-12.902344-8.699219-8.398437-13.5-19.796875-13.5-31.796875h-30c0 12-4.800781 23.398438-13.5 31.800781-8.398438 8.398438-19.5 13.5-31.5 12.898438h-15v18.300781c0 41.398438 33.601562 75 75 75s75-33.601562 75-75v-18.300781zm0 0" fill="#ff7816"/><path d="m316 418.699219h15v18.300781c0 41.398438-33.601562 75-75 75v-138h15c0 12 4.800781 23.398438 13.5 31.800781 8.398438 8.398438 19.800781 13.796875 31.5 12.898438zm0 0" fill="#ff4b00"/><path d="m438.582031 252.078125-119.121093-225.082031 30.335937-15.160156c15.484375-7.75 32.8125-11.835938 50.113281-11.835938 61.800782 0 112.089844 50.273438 112.089844 112.074219v71.875c0 35.902343-28.050781 65.59375-63.867188 67.585937zm0 0" fill="#b35f49"/><path d="m73.417969 252.078125-9.550781-.542969c-35.816407-1.992187-63.867188-31.683594-63.867188-67.585937v-71.875c0-61.800781 50.289062-112.074219 112.089844-112.074219 17.300781 0 34.628906 4.085938 50.113281 11.835938l30.335937 15.160156zm0 0" fill="#c6715a"/><path d="m481 311.898438c0 77.402343-52.800781 123.300781-156.597656 136.5-3.300782.300781-5.402344.601562-9.003906.300781-19.496094 0-37.796876-7.5-51.898438-21.601563-2.699219-2.699218-5.398438-5.398437-7.5-8.398437-2.097656 3-4.796875 5.699219-7.5 8.398437-14.097656 14.101563-33.898438 21-52.5 21.601563-.300781 0-.300781 0-.300781 0-2.695313 0-5.097657 0-8.097657-.300781-103.800781-13.199219-156.601562-59.097657-156.601562-136.5 0-25.5 5.699219-50.097657 17.101562-72.898438 8.699219-17.398438 12.898438-36.300781 12.898438-56.101562 0-87.296876 64.5-161.898438 154.800781-179h.597657l27.003906 13.203124-1.203125 4.199219c-.898438 2.699219-1.199219 5.699219-1.199219 8.699219 0 10.800781 5.398438 21.300781 15 30.300781 18.300781 17.699219 52.199219 29.699219 90 29.699219 17.699219 0 34.199219-3 49.800781-8.101562l35.398438 19.199218c12.902343 24 19.800781 53 19.800781 80.902344 0 20.699219 4.199219 39.597656 12.898438 56.996094 11.402343 22.804687 17.101562 47.402344 17.101562 72.902344zm0 0" fill="#fdbf00"/><path d="m481 311.898438c0 77.402343-52.800781 123.300781-156.597656 136.5-3.300782.300781-5.402344.601562-9.003906.300781-19.496094 0-37.796876-7.5-51.898438-21.601563-2.699219-2.699218-5.398438-5.398437-7.5-8.398437v-358.398438c18.300781 17.699219 52.199219 29.699219 90 29.699219 17.699219 0 34.199219-3 49.800781-8.101562l35.398438 19.199218c12.902343 24 19.800781 53 19.800781 80.902344 0 20.699219 4.199219 39.597656 12.898438 56.996094 11.402343 22.804687 17.101562 47.402344 17.101562 72.902344zm0 0" fill="#ff9f00"/><path d="m322.597656 273.5c-20.996094-10.5-43.796875-15.601562-66.597656-15.601562s-45.601562 5.101562-66.597656 15.601562l-8.402344 4.199219v9.300781c0 41.398438 33.601562 75 75 75s75-33.601562 75-75v-9.300781zm0 0" fill="#725d57"/><path d="m346 242c-24.8125 0-45-20.1875-45-45s20.1875-45 45-45 45 20.1875 45 45-20.1875 45-45 45zm0 0" fill="#f8e5ca"/><path d="m346 212c-8.277344 0-15-6.722656-15-15s6.722656-15 15-15 15 6.722656 15 15-6.722656 15-15 15zm0 0" fill="#3e322e"/><path d="m166 242c-24.8125 0-45-20.1875-45-45s20.1875-45 45-45 45 20.1875 45 45-20.1875 45-45 45zm0 0" fill="#faecd8"/><path d="m166 212c-8.277344 0-15-6.722656-15-15s6.722656-15 15-15 15 6.722656 15 15-6.722656 15-15 15zm0 0" fill="#53433f"/><path d="m421.601562 85.199219c-2.101562-3.300781-4.5-6.300781-7.199218-9.601563-36.300782-47.398437-94.800782-75.597656-158.402344-75.597656-11.101562 0-21.597656.898438-30.601562 2.398438l-9 1.5h-.300782l-2.699218 9c-1.496094 5.703124-2.398438 11.101562-2.398438 17.101562 0 27.300781 17.402344 51.300781 45 67.5 24 14.097656 55.199219 22.5 90 22.5 24.300781 0 48-4.199219 68.699219-12.300781l16.5-6.597657c-2.699219-5.402343-6-10.800781-9.597657-15.902343zm0 0" fill="#ff9f00"/><path d="m331 277.699219v9.300781c0 41.398438-33.601562 75-75 75v-104.101562c22.800781 0 45.601562 5.101562 66.597656 15.601562zm0 0" fill="#53433f"/><path d="m431.199219 101.101562-16.5 6.597657c-20.699219 8.101562-44.398438 12.300781-68.699219 12.300781-34.800781 0-66-8.402344-90-22.5v-97.5c63.601562 0 122.101562 28.199219 158.402344 75.597656 2.699218 3.300782 5.097656 6.300782 7.199218 9.601563 3.597657 5.101562 6.898438 10.5 9.597657 15.902343zm0 0" fill="#ff7816"/></g></defs><g fi:class="KUsePattern"><pattern id="pattern_L1_0" width="350" height="350" patternUnits="userSpaceOnUse"><use xlink:href="#L1_0" x="-350" y="-350"/><use xlink:href="#L1_0" x="0" y="-350"/><use xlink:href="#L1_0" x="350" y="-350"/><use xlink:href="#L1_0" x="-350" y="0"/><use xlink:href="#L1_0" x="0" y="0"/><use xlink:href="#L1_0" x="350" y="0"/><use xlink:href="#L1_0" x="-350" y="350"/><use xlink:href="#L1_0" x="0" y="350"/><use xlink:href="#L1_0" x="350" y="350"/></pattern><rect x="0" y="0" width="100%" height="100%" fill="url(#pattern_L1_0)"/></g><g fi:class="KUsePattern"><pattern id="pattern_L1_2" width="350" height="350" patternUnits="userSpaceOnUse"><use xlink:href="#L1_2" x="-350" y="-350"/><use xlink:href="#L1_2" x="0" y="-350"/><use xlink:href="#L1_2" x="350" y="-350"/><use xlink:href="#L1_2" x="-350" y="0"/><use xlink:href="#L1_2" x="0" y="0"/><use xlink:href="#L1_2" x="350" y="0"/><use xlink:href="#L1_2" x="-350" y="350"/><use xlink:href="#L1_2" x="0" y="350"/><use xlink:href="#L1_2" x="350" y="350"/></pattern><rect x="0" y="0" width="100%" height="100%" fill="url(#pattern_L1_2)"/></g><g fi:class="KUsePattern"><pattern id="pattern_L1_3" width="350" height="350" patternUnits="userSpaceOnUse"><use xlink:href="#L1_3" x="-350" y="-350"/><use xlink:href="#L1_3" x="0" y="-350"/><use xlink:href="#L1_3" x="350" y="-350"/><use xlink:href="#L1_3" x="-350" y="0"/><use xlink:href="#L1_3" x="0" y="0"/><use xlink:href="#L1_3" x="350" y="0"/><use xlink:href="#L1_3" x="-350" y="350"/><use xlink:href="#L1_3" x="0" y="350"/><use xlink:href="#L1_3" x="350" y="350"/></pattern><rect x="0" y="0" width="100%" height="100%" fill="url(#pattern_L1_3)"/></g><g fi:class="KUsePattern"><pattern id="pattern_L1_4" width="350" height="350" patternUnits="userSpaceOnUse"><use xlink:href="#L1_4" x="-350" y="-350"/><use xlink:href="#L1_4" x="0" y="-350"/><use xlink:href="#L1_4" x="350" y="-350"/><use xlink:href="#L1_4" x="-350" y="0"/><use xlink:href="#L1_4" x="0" y="0"/><use xlink:href="#L1_4" x="350" y="0"/><use xlink:href="#L1_4" x="-350" y="350"/><use xlink:href="#L1_4" x="0" y="350"/><use xlink:href="#L1_4" x="350" y="350"/></pattern><rect x="0" y="0" width="100%" height="100%" fill="url(#pattern_L1_4)"/></g><g fi:class="KUsePattern"><pattern id="pattern_L1_5" width="350" height="350" patternUnits="userSpaceOnUse"><use xlink:href="#L1_5" x="-350" y="-350"/><use xlink:href="#L1_5" x="0" y="-350"/><use xlink:href="#L1_5" x="350" y="-350"/><use xlink:href="#L1_5" x="-350" y="0"/><use xlink:href="#L1_5" x="0" y="0"/><use xlink:href="#L1_5" x="350" y="0"/><use xlink:href="#L1_5" x="-350" y="350"/><use xlink:href="#L1_5" x="0" y="350"/><use xlink:href="#L1_5" x="350" y="350"/></pattern><rect x="0" y="0" width="100%" height="100%" fill="url(#pattern_L1_5)"/></g><g fi:class="KUsePattern"><pattern id="pattern_L1_6" width="350" height="350" patternUnits="userSpaceOnUse"><use xlink:href="#L1_6" x="-350" y="-350"/><use xlink:href="#L1_6" x="0" y="-350"/><use xlink:href="#L1_6" x="350" y="-350"/><use xlink:href="#L1_6" x="-350" y="0"/><use xlink:href="#L1_6" x="0" y="0"/><use xlink:href="#L1_6" x="350" y="0"/><use xlink:href="#L1_6" x="-350" y="350"/><use xlink:href="#L1_6" x="0" y="350"/><use xlink:href="#L1_6" x="350" y="350"/></pattern><rect x="0" y="0" width="100%" height="100%" fill="url(#pattern_L1_6)"/></g><g fi:class="KUsePattern"><pattern id="pattern_L1_7" width="350" height="350" patternUnits="userSpaceOnUse"><use xlink:href="#L1_7" x="-350" y="-350"/><use xlink:href="#L1_7" x="0" y="-350"/><use xlink:href="#L1_7" x="350" y="-350"/><use xlink:href="#L1_7" x="-350" y="0"/><use xlink:href="#L1_7" x="0" y="0"/><use xlink:href="#L1_7" x="350" y="0"/><use xlink:href="#L1_7" x="-350" y="350"/><use xlink:href="#L1_7" x="0" y="350"/><use xlink:href="#L1_7" x="350" y="350"/></pattern><rect x="0" y="0" width="100%" height="100%" fill="url(#pattern_L1_7)"/></g><g fi:class="KUsePattern"><pattern id="pattern_L1_8" width="350" height="350" patternUnits="userSpaceOnUse"><use xlink:href="#L1_8" x="-350" y="-350"/><use xlink:href="#L1_8" x="0" y="-350"/><use xlink:href="#L1_8" x="350" y="-350"/><use xlink:href="#L1_8" x="-350" y="0"/><use xlink:href="#L1_8" x="0" y="0"/><use xlink:href="#L1_8" x="350" y="0"/><use xlink:href="#L1_8" x="-350" y="350"/><use xlink:href="#L1_8" x="0" y="350"/><use xlink:href="#L1_8" x="350" y="350"/></pattern><rect x="0" y="0" width="100%" height="100%" fill="url(#pattern_L1_8)"/></g></svg>